/* XPM */
static char * supercipher_xpm[] = {
"64 64 251 2",
"  	c None",
". 	c #000000",
"+ 	c #000100",
"@ 	c #000C00",
"# 	c #023100",
"$ 	c #023E00",
"% 	c #023200",
"& 	c #000200",
"* 	c #012300",
"= 	c #057700",
"- 	c #068600",
"; 	c #068900",
"> 	c #023700",
", 	c #012100",
"' 	c #057400",
") 	c #08AD00",
"! 	c #09C300",
"~ 	c #09CD00",
"{ 	c #09D300",
"] 	c #09D400",
"^ 	c #09C000",
"/ 	c #069400",
"( 	c #034D00",
"_ 	c #000700",
": 	c #000500",
"< 	c #034300",
"[ 	c #034200",
"} 	c #000800",
"| 	c #045B00",
"1 	c #057600",
"2 	c #011700",
"3 	c #012700",
"4 	c #068500",
"5 	c #09C200",
"6 	c #08B200",
"7 	c #057C00",
"8 	c #035000",
"9 	c #023B00",
"0 	c #012800",
"a 	c #001400",
"b 	c #000400",
"c 	c #001000",
"d 	c #046A00",
"e 	c #079C00",
"f 	c #09C900",
"g 	c #08AF00",
"h 	c #045800",
"i 	c #022F00",
"j 	c #08B700",
"k 	c #08BC00",
"l 	c #034400",
"m 	c #046400",
"n 	c #000900",
"o 	c #057900",
"p 	c #08B300",
"q 	c #045900",
"r 	c #011800",
"s 	c #000300",
"t 	c #057D00",
"u 	c #09CB00",
"v 	c #08B500",
"w 	c #034800",
"x 	c #08AA00",
"y 	c #068400",
"z 	c #023000",
"A 	c #07A600",
"B 	c #08AB00",
"C 	c #034500",
"D 	c #08BD00",
"E 	c #0AE900",
"F 	c #0BFB00",
"G 	c #0BED00",
"H 	c #0ADA00",
"I 	c #09C700",
"J 	c #08B400",
"K 	c #000D00",
"L 	c #001200",
"M 	c #057000",
"N 	c #09C400",
"O 	c #07A200",
"P 	c #068800",
"Q 	c #012A00",
"R 	c #023900",
"S 	c #09CF00",
"T 	c #035200",
"U 	c #022C00",
"V 	c #0AE400",
"W 	c #0CFF00",
"X 	c #0BF600",
"Y 	c #0BFC00",
"Z 	c #046900",
"` 	c #000A00",
" .	c #000B00",
"..	c #09D200",
"+.	c #079D00",
"@.	c #045D00",
"#.	c #012000",
"$.	c #023500",
"%.	c #023800",
"&.	c #011B00",
"*.	c #08B000",
"=.	c #0BEB00",
"-.	c #057800",
";.	c #001100",
">.	c #079900",
",.	c #034000",
"'.	c #0BF500",
").	c #09CA00",
"!.	c #09C100",
"~.	c #023D00",
"{.	c #001300",
"].	c #057100",
"^.	c #056E00",
"/.	c #079500",
"(.	c #07A300",
"_.	c #0BF200",
":.	c #0BF300",
"<.	c #046100",
"[.	c #0BF700",
"}.	c #0AD700",
"|.	c #09CE00",
"1.	c #022B00",
"2.	c #068100",
"3.	c #022D00",
"4.	c #08B600",
"5.	c #057200",
"6.	c #011F00",
"7.	c #000F00",
"8.	c #034B00",
"9.	c #09D000",
"0.	c #001500",
"a.	c #034900",
"b.	c #0BF900",
"c.	c #012400",
"d.	c #057A00",
"e.	c #011600",
"f.	c #07A400",
"g.	c #000600",
"h.	c #034E00",
"i.	c #0BF800",
"j.	c #012900",
"k.	c #068200",
"l.	c #0BFA00",
"m.	c #068000",
"n.	c #023C00",
"o.	c #034F00",
"p.	c #012200",
"q.	c #034100",
"r.	c #057500",
"s.	c #08B900",
"t.	c #09C600",
"u.	c #079700",
"v.	c #022E00",
"w.	c #0AE500",
"x.	c #035100",
"y.	c #035300",
"z.	c #0BF000",
"A.	c #069200",
"B.	c #045F00",
"C.	c #023600",
"D.	c #034600",
"E.	c #08B800",
"F.	c #012600",
"G.	c #035400",
"H.	c #011900",
"I.	c #046000",
"J.	c #079E00",
"K.	c #08B100",
"L.	c #07A000",
"M.	c #012500",
"N.	c #068C00",
"O.	c #046700",
"P.	c #09C500",
"Q.	c #046200",
"R.	c #011E00",
"S.	c #034C00",
"T.	c #011D00",
"U.	c #011A00",
"V.	c #07A100",
"W.	c #07A700",
"X.	c #08BF00",
"Y.	c #034700",
"Z.	c #068A00",
"`.	c #068300",
" +	c #068D00",
".+	c #034A00",
"++	c #0ADF00",
"@+	c #08BB00",
"#+	c #057300",
"$+	c #000E00",
"%+	c #0BF400",
"&+	c #011C00",
"*+	c #023A00",
"=+	c #069000",
"-+	c #068700",
";+	c #046300",
">+	c #045A00",
",+	c #045600",
"'+	c #09C800",
")+	c #069100",
"!+	c #023400",
"~+	c #079A00",
"{+	c #08BA00",
"]+	c #08AE00",
"^+	c #057F00",
"/+	c #09D100",
"(+	c #09CC00",
"_+	c #057B00",
":+	c #08BE00",
"<+	c #0BEE00",
"[+	c #079600",
"}+	c #023300",
"|+	c #068E00",
"1+	c #068B00",
"2+	c #0BEC00",
"3+	c #045500",
"4+	c #0AD500",
"5+	c #07A800",
"6+	c #046600",
"7+	c #056C00",
"8+	c #045E00",
"9+	c #046500",
"0+	c #0BFD00",
"a+	c #045C00",
"b+	c #0AE100",
"c+	c #046800",
"d+	c #057E00",
"e+	c #068F00",
"f+	c #0ADD00",
"g+	c #056D00",
"h+	c #0AD900",
"i+	c #07A500",
"j+	c #0BF100",
"k+	c #023F00",
"l+	c #056F00",
"m+	c #056B00",
"n+	c #0ADC00",
"o+	c #079B00",
"p+	c #07A900",
"q+	c #079800",
"r+	c #0BEF00",
"s+	c #0AD800",
"t+	c #0AE300",
"u+	c #0AE700",
"v+	c #079F00",
"w+	c #0ADB00",
"x+	c #0AE600",
"y+	c #045700",
"z+	c #0AD600",
"A+	c #0BFE00",
"B+	c #0AE000",
". . . . . . . + . . @ # $ % & . * = - ; > . . . , ' ) ! ! ~ { ] ] ] ] ] ] ] ] ] ] { ~ ! ^ / ( _ . . _ : . , < < < < < < [ } & | ",
". . . . . . + . . @ # $ % & . * = - 1 2 . . 3 4 5 ~ { { 6 7 8 9 0 a b b b c , % < d e f { ~ 5 g h @ . . i j 5 ! ! ! ! 5 k l } & ",
". . . . . . . . @ # $ % & . * = - m b . n o 5 ~ { p q r . . . . . . . . . . . . . . . s % t u ~ 5 v w % k ~ x y y y y y ! ^ l } ",
". . . . . . . n z $ % & . * = - m b . * A ~ { B C . . . + 0 d A D { E F G H I J ; C K . . . L M N ~ 5 D ~ O n . . . . s P ! k } ",
". . . . . . : Q 9 > & . * = - m b . R D ~ S T . . . U e V W W W X X X X X X X X W W Y I Z ` . .  .y ..~ +._ . i @.@.@. .s f ^ } ",
". . . . . + #.$.%.: . &.= - m b . R D ~ *., . . $.6 W W X X X X X X X X X X X X X X X W W =.-.;.. . C >.: . ,.'.W W Y _ s ).!.} ",
". . . . . c # ~. .. {.].- ^.b . R D ~ /.: . K (.W W X X _.X X W W W W W W W W W W X X X X W W :.<.+ . b . l [.W X X }.. s |.!.} ",
". . . . s 1.9 0 . & <.2.1 n . 3.D ~ /.: . i H W X X _.X X W Y 4.5.,.6.7.: c * 8.2.9.W W X X X W W 6 0.. a.b.W X _.X B . c.] !.: ",
". . + . 0.$.$ b . % d.4 e.. , j ~ f.g.. h.b.W X _._.X W i.y e.. . . . . . . . . . . j.O Y W X X X W E k.l.W X _.X W m.. 8.] f.. ",
". . . . 3 n.* . ` 5.- o.. b O ~ p K . ~.i.W X _._.X W ] p.. . s q.r.+.s.t.4.u.].Q . . . v.{ W X _.X X X X X _.w.X W x.. 5.{ k.. ",
". . . _ % [ ` . $ 2.k.} . y.5 |., . U z.W X _.w.X W 9.c . g.^.t.{ ~ ! ! ! ! ~ { ] 4.y.s . } x W X _.w.w.w.w.V w.X W 0 . A.~ B.. ",
". & . a C.R . . Z P D.. ;.E.~ 1 . g.H W X _.V _.X i.j.. F.k { ~ ^ P G.v.H.> I.J.! ~ { K.3 . s L.W X _.V H ] H w.X l.: . 6 ! n.. ",
". s . 6.n.M.. 0.7 N.a . O.~ P.@ . ].W X _.V w.X W +.. g.v ~ D Q.c . . . . . . . R.o ^ ~ { S.. _ N W X _.V { V _.X ... b 9.! T.. ",
"+ & . 3 [ U.. 9 2.' . + x { Z . 2 _.W X w.H w.X W q.. h { D 6.. . & U ( m 8.T.. . . p.V.~ ] $.. 6.X W X w.] w.X W W.. 0 ] X.s . ",
"b . . z Y.{.. T P a.. * ! { T.. Z.W X _.V ] w.X W H.. V.~ r.. b a.`.P 2.2.P  +-.> & . g./.~ X.} . r.W X w.H w.X W -.. o.{ L.. s ",
"_ . . %..+` . Q. +% . Q.~ g . + ++X _.V H ] w.X W _ . k ! ~.. U - 2.7 ^.$ Q.7 2.P = &.. 2 @+~ #+. $+%+X _.V w.X W ( . M ~ 7 . &+",
"} . . *+S.& . 5.=+p.. 4 { ^.. z W X w.H ~ ] w.X W &+. =+~ -+. . #.;+Z.P 2.-.>+w o - m.g.. ,+! '+` . u.W X w.w.X W c.. )+! h . !+",
"} . . *+S.& . t =+;.. ~+] w . y W X w.] ! ] w.X W y.. [ { 5 ( & . . $+D.o P 2.7 = 1 - ( . ` {+{ @.. D.W X w.w.X [.s . v ! %.. .+",
"} . . *+S.& . t =+s . ]+] z . g X _.V { ! ] w.X W v . . J.~ 5 u.%.s . . . #.x.^+P 2.7 4 _ . ].~ e . ` b.X w._.X |.. _ ..! U.. ;+",
"} . . *+S.& . t =+s . X.] r . f X w.H ~ 5 { V _.X W l .  .t /+~ ! K.O.T.. . . + j.>+4 P $ . !+! (+: . /+X w.X W (.. U ] D & . _+",
"} . . *+S.& . t =+s . X.] b . V X w.] ! :+~ H w.X W <+1.. . i [+9.{ ~ 5 u.o.;.. . . : }+;+. _ :+] j.. x X _.X W ' . T { +.. : |+",
"} . . *+S.& . t =+s . X.] b . l.X w.] ! v 5 { V _.X W :.Z s . . a Z j { ~ ! ^ 1+< ` . . . b . L.] S.. ; W X X W a.. #+~ o . R. +",
"} . . *+S.& . t =+s . X.] b . 2+X w.H ~ :+:+~ H V _.X W W ).S.: . . . i d.X.{ ~ ! k ^+%.s . . 2.{ d . #+W X X W #.. /.! 3+. > P ",
"} . . *+S.& . t =+s . X.] ;.. 4+X _.V { 5 v 5 ~ H V _.X X W W E Z.0 . . . & $ ; '+{ ~ 5 5+( _ 6+~ ' . Q.W W X %+& . s.! $.. S.2.",
"} . . *+S.& . t =+s . J ] F.. {+W X w.] ! v v 5 ~ H V w._.X X X W W ).7+r . . . _ S.[+S ~ 5 g h 5 ^+. 2 8+ +E.K.. ` ..! 2 . 9+^+",
"} . . *+S.& . t =+@ . O { $ . r.W X w.H ~ :+]+v 5 ~ { H V w.w._.X X W W 0+{+a+$+. . . &.t u ~ ! 5 {+`.. . . . . ` D.{ {++ . t ^+",
"_ . . %..+& . #+ +U.. 1+~ #+. 1.W X _.V { 5 v x v :+5 ~ { ] H V w._.X X X W W [.x S.: . . L M t.{ ~ {+-+6+,.,.,.D.H N y . _ N.7 ",
"b . . $.Y._ . m P j.. ,+! g . + }.W X w.H ~ 5 v x ]+v :+5 ! ~ { H V w.w._.X X X W W b+Z ` . .  .c+~ ~ ~ { ] ] ] { N -+. _ v.P #+",
"& . + v.[ $+. y.2.S.. 6.5 ..c.. o.W X _.V H ~ 5 v x W.]+6 v :+5 ~ { ] H V w.w._.X X W W =.-.c . . 2 e ~ 5  + + +N.y . _ z =+_+o.",
". + 1.$ Y. .. }+7 ' . + L.~ / . + '+W X _.V H ~ 5 v ]+W.V.W.]+v :+5 ! ~ { ] H V w._.X X W W :.1+$+. & d+~ 5 ( . . . _ z A.m.y.. ",
"+ Q $ w @ . & Q.-.-+r . *+5 ..# . c.G W X _.V H ~ 5 :+v 6 ]+W.W.]+6 v :+5 ! ~ { H V w._.X X X W w.C . . d+~ 5 w . & v.=+m.3+. b ",
"3 9 Y.@ . s c+2.P  +Q.. + /.~ {+c . 9 b.W X _.V H { ~ ! 5 :+v 6 ]+W.W.]+6 v :+5 ~ { H V w.w._.X W 0+c+. . `.~ ^ 1.. 2 y -.v..  .",
"$.[  .. s Z -  +0.e.e.e.. U.J ~ A : . D.:.W X _.w.V H ] { ~ ! 5 :+v ]+W.V.W.]+v :+5 ~ { ] H V _.X W W Q.. s W.~ O : . G.2.;++ . ",
"9 ` . & c+- e+e.. . . . . . 1.D ~ e : . U f+W X X _.w.w.V H ] { ~ 5 :+v 6 ]+W.W.]+v :+5 ! ~ H V _.X W Y *+. p.(+5 8.. a -+-.e.. ",
"C.. & Q.2. +e.. b f.W.5+5+5+ +g+D ~ e  .. ` `.b.W X X X _.w.w.V H { ~ ! 5 :+v ]+W.W.]+6 v 5 ~ H V _.X W h+} . ^+~ i++ . 5.2.*+. ",
"v.. {.-.4 0.. b W.~ { ] ] ] { ~ 5 D ~ p R.. . R. +j+W W X X X _.w.V H ] { ~ 5 :+v ]+W.V.x v 5 ~ H V _.X W 6+. R./+5 F.. 8.P G.. ",
"* . 3 7 ' . b f.~ 4+6.6.6.k+<.^+I 5 s.~ /+l+: . . K c+).W W W X X _.w.w.V H { ~ 5 :+v ]+W.x v 5 ~ H w.X W f+& . ) ~ <.. z  +m+. ",
"r . ~.2.@.. #.5 |.6.. . . . . . ^+I :+5+~ { X.6+K . . . c._+h+W W X X X _.w.V H { ~ 5 :+v x x v 5 { V _.X W }+. M { -+. e.=+= . ",
"` . 3+P Y.. q.! ]+. g.n+s.A.O._ . 5 5 2 Q.D ~ { f d+i . . . + > o+_.W W X X _.w.V H { ~ 5 v x ]+:+~ H w.X W k.. C ] 5+. ` =+t . ",
". . ^. +v.. 9+~ N.. U W X W W a . s.! c.. e.Z j ! ~ { v g+p.. . .  .| ^ W W X X _.w.V H ~ 5 v x v 5 { V _.X 6 . 6.] j . s =+t . ",
". _ ^+=+L . Z.{ d . h W X X W #.. p+! % . . . n ( u.5 ! ~ ..p+q @ . . . , N.X W X X _.V H ~ 5 v ]+:+~ H w.X n+. $+] ^ . s =+t . ",
". U.^+- . . ]+] [ . P W X X W % . q+! C . n.n . . . U.>+O 5 ~ { u Z.%.. . . 0.=+0+W X _.V H ~ :+]+v ! ] w.X r+. b ] ^ . s =+t . ",
". v.^+^.. @ ! ] H.. v X _.X W C . -+~ #+. 0.- y.#.. . . + 0 #+E.! ~ { D O.} . . }+s+W X _.V { 5 v 6 ! ] w.X F . b ] ^ . s =+t . ",
". l 2.G.. 1.! t.. . t+X w.X W 8+. q { 5+. . d+2.P o w 2 . . . } < e+5 ~ { I ;+& . {.~ W X w.H ~ :+v ! ] w.X u+. b ] ^ . s =+t . ",
". @.P $ . 8.! V.. c W X w.X W o+. 6.] ! 2 . 8.P -.7 2.-+M n.} . . . r c+@+~ { ) * . T.:.X _.V { 5 :+~ H w.X ).. e.] ^ . s =+t . ",
". r. +c.. ].~ ^+. 9 W X w._.X f+. . X.~ I.. ` - 7 > <.-.2.P -+| F.. . . c m+^ ~ ^  .. y W X w.] ! 5 { V _.X ) . z ] K.. s =+t . ",
"K ^+e+n . [+{ @.. 6+W X w.w.X W 6.. ].{ 4.n . h.- r.3 r C 5.7 2.P t C g.. . F.s.{ ^.. % W X w.] ! ! ] w.X W Z.. .+] ~+. 7.=+t . ",
", ^+d+. + E.] !+. u.W X w.w.X W 2.. $+f ! G.. g.o - d.8+p.b 0 ,+-.2.P y [ + . Q.~ ]+. ;.W X w.] ! ~ H w.X W $.. Z { y . , =+#+. ",
"!+^+9+. e.! { K . P.X _.V V _.X r+K . ' ~ {+6.. 7.8+-+2.7 #+o.i .+].7 2.- R.. w ! 6 .  .W X w.] ~ H V _.X n++ . B ~ O.. }+ +Q.. ",
"8.2.S.. $.! {+. + j+X w.H H w.X W #+. n v ~ f.{.. . &.Q.; P 2.^+2.P P B.H.. + q+~ y . 0 W X w.] { V _.X W m.. 6.{ ! 3 . D.P x.. ",
"m P !+. ,+! /.. R.W X w.] ] w.X W '.j.. c.S ~ g ,.+ . . _ v.G.7+T C.n . . s x.5 ..v.. <.W X w.] H w.X W <+2 . 5.{ W.+ . ].2.$ . ",
"d. +&.. 7 ~ #+. a.W X w.] { V _.X W }.K . U ! ~ 5 e R : . . . . . . . g.~.v+5 ~ d+. + (+W X w.H V _.X W a+. 7.P.~ B.. e.N.7 2 . ",
"^+ +s . V.{ o.. r.W X w.H V w.w._.X W v  .. e. +/+~ ! {+y 8.3.T.1.h._+j ! ~ 9.o & . c+W X _.V V _.X W E.+ . ; ~ v ;.. S.P c+. . ",
"^+1 . b ^ ] 3 . W.W X w.V _.X X X _.X W |.U.. . 0 /.|.{ ~ ! ! ! ! ! ~ { ~ =+F.. . D.i.W X w.V _.X W w+H.. k+..5 < .  .k.2.R .  .",
"2.@.. #.! S b . ] X _.V _.X W W W X _.X W x+y+& . . ` D.^+v+K.! s.V.7 8 K . . b ^.0+W X _.w._.X W z+r . #.N ~ ; + . a+- M ` . F.",
"P D.. q.! ]+. g.F X w._.X W e 8.G W X X X W W ..h._ . . . . . . . . . . . n y.4+W W X _._.X X W /+0.. #.N ~ W.L . Q -+d.j.. : $ ",
" +> . 6+~ N.. U W X _.X W K.b . &.!.W W X X X W W %+K.6+$ j.{.: c 6.9 d i+j+W W X X _.X X W Y -+n . M.P.~ W.L . e.2.2.T . . v.9 ",
"=+%.. d+{ d . h W X X W N n . c . s d.i.W X X X X X W W W W W W W W W W W X X X _.X X W W u 3.. . j.I ~ W.L . e.`.- O. .. 0.$ # ",
"=+%.. ^+] 8 . ; W X W 4+;.. $.5 > . . r N.'.W X X X X X X X X X X X X X X X X X X W A+v .+s . s m+..~ (.L . e.`.- Z  .. @ ~.$.&.",
"=+%.. ^+] 8 . A 2+2+}.&.. F.u ~ /+^.g.. . {.2.S A+W W X X X X X X X X X W W W Y ~ `.R.. . . v.6 { ~ v+c . e.`.- Z  .. @ [ 9 3 s ",
"=+%.. d+{ 8 L . . . . . c.5 ~ O 5 ~ P.O.n . . . L o.A.4.'+H 2+Y _.B+|.D 5+#+n.` . . . + [ q+/+~ ^ 9+g.. H.y - Z  .. @ [ $ Q b . ",
" +> . 7 :+H 8 ;.;.;.;.c.5 ~ f.a q D ~ { f ].1.+ . . . . . . . . . . . . . . . . s 3.l+X.{ ~ 5 u., . . T.4 - Z  .. @ [ $ 1.b . & ",
"P $.@ . d+:+{ ] ] ] ] { ~ f.a . . L c+{+~ { ] N / <.[ # , ;.s s s @ &+U 9 h.' L.(+] { ~ !.-+> & . & w 1+- 6+ .. @ [ $ 1.b . & + ",
"= =+> K . 7 J J J J J J L.a . H.b . . $+I.+.5 ! ~ { ] ] ] ] ] ] ] ] ] ] ] { ~ ! ! !.e Q.e.. . . 6.r.P 2.Q.n . @ [ $ 1.b . & & . "};
